<?xml version="1.0" encoding="utf-8"?>
<!-- Generator: Adobe Illustrator 15.1.0, SVG Export Plug-In . SVG Version: 6.00 Build 0)  -->
<!DOCTYPE svg PUBLIC "-//W3C//DTD SVG 1.1//EN" "http://www.w3.org/Graphics/SVG/1.1/DTD/svg11.dtd">
<svg version="1.1" id="Ebene_1" xmlns="http://www.w3.org/2000/svg" xmlns:xlink="http://www.w3.org/1999/xlink" x="0px" y="0px"
	 width="24px" height="24px" viewBox="0 0 24 24" enable-background="new 0 0 24 24" xml:space="preserve">
<path fill="#94C11F" d="M24,2v22H0V2h3v1c0,1.103,0.897,2,2,2s2-0.897,2-2V2h10v1c0,1.103,0.896,2,2,2s2-0.897,2-2V2H24z M22,8H2v14
	h20V8z M20,1c0-0.552-0.447-1-1-1s-1,0.448-1,1v2c0,0.552,0.447,1,1,1s1-0.448,1-1V1z M6,3c0,0.552-0.447,1-1,1S4,3.552,4,3V1
	c0-0.552,0.447-1,1-1s1,0.448,1,1V3z M12.688,16.482c0-0.803-0.417-1.431-1.108-1.695c0.528-0.264,0.836-0.807,0.836-1.503
	c0-1.346-1.312-2.149-2.581-2.149c-1.477,0-2.591,0.925-2.659,2.764H8.82c-0.014-0.762,0.271-1.314,1.025-1.314
	c0.449,0,0.933,0.271,0.933,0.869c0,0.754-0.816,0.861-1.567,0.797v1.28c1.067,0,1.704,0.065,1.704,0.983
	c0,0.726-0.548,1.049-1.091,1.049c-0.822,0-1.159-0.613-1.188-1.453H7.001C6.969,18.002,8.115,19,9.843,19
	C11.386,19,12.688,18.057,12.688,16.482z M17,19v-7.718h-1.393c-0.172,1.154-0.994,1.491-2.17,1.459v1.346h1.852V19H17z"/>
</svg>
