<?xml version="1.0" encoding="utf-8"?>
<!-- Generator: Adobe Illustrator 15.1.0, SVG Export Plug-In . SVG Version: 6.00 Build 0)  -->
<!DOCTYPE svg PUBLIC "-//W3C//DTD SVG 1.1//EN" "http://www.w3.org/Graphics/SVG/1.1/DTD/svg11.dtd">
<svg version="1.1" id="Ebene_1" xmlns="http://www.w3.org/2000/svg" xmlns:xlink="http://www.w3.org/1999/xlink" x="0px" y="0px"
	 width="24px" height="24px" viewBox="0 0 24 24" enable-background="new 0 0 24 24" xml:space="preserve">
<path fill="#95C11F" d="M12,3c5.514,0,10,3.592,10,8.007c0,4.917-5.145,7.961-9.91,7.961c-1.937,0-3.383-0.397-4.394-0.644
	c-1,0.613-1.595,1.037-4.272,1.82c0.535-1.373,0.723-2.748,0.602-4.267c-0.838-1-2.025-2.399-2.025-4.872C2,6.592,6.486,3,12,3z
	 M12,1C5.662,1,0,5.226,0,11.007c0,2.05,0.738,4.063,2.047,5.625c0.055,1.83-1.023,4.456-1.993,6.368
	c2.602-0.47,6.301-1.508,7.978-2.536c1.418,0.345,2.775,0.503,4.059,0.503c7.084,0,11.91-4.837,11.91-9.961C24,5.195,18.299,1,12,1z
	 M12,15H7v-1h5V15z M17,12H7v-1h10V12z M17,9H7V8h10V9z"/>
<g>
	<g>
		<path fill="#95C11F" d="M136.212-78.683c-3.641,0-7.284-0.313-10.838-0.934c-1.858-0.326-3.104-2.098-2.78-3.96
			c0.325-1.86,2.096-3.104,3.959-2.78c6.348,1.108,13.024,1.104,19.37-0.011c1.855-0.321,3.634,0.918,3.96,2.779
			c0.325,1.86-0.916,3.634-2.777,3.961C143.535-79.001,139.871-78.683,136.212-78.683z M106.643-86.583
			c-0.58,0-1.168-0.147-1.707-0.459c-6.332-3.659-11.937-8.358-16.654-13.968c-1.217-1.445-1.031-3.604,0.416-4.819
			c1.445-1.216,3.604-1.03,4.82,0.416c4.205,4.999,9.199,9.187,14.842,12.448c1.633,0.943,2.193,3.035,1.25,4.673
			C108.975-87.195,107.826-86.583,106.643-86.583z M165.824-86.609c-1.182,0-2.33-0.611-2.965-1.707
			c-0.945-1.638-0.387-3.729,1.246-4.676c5.641-3.265,10.629-7.457,14.83-12.459c1.213-1.445,3.371-1.634,4.817-0.419
			c1.447,1.214,1.638,3.373,0.42,4.819c-4.711,5.611-10.311,10.316-16.639,13.98C166.994-86.757,166.404-86.609,165.824-86.609z
			 M80.602-117.566c-1.398,0-2.709-0.859-3.215-2.248c-2.502-6.85-3.773-14.051-3.781-21.406c0-1.888,1.529-3.422,3.418-3.423h0.004
			c1.887,0,3.42,1.529,3.42,3.417c0.008,6.553,1.141,12.968,3.367,19.066c0.646,1.773-0.267,3.738-2.041,4.387
			C81.387-117.632,80.99-117.566,80.602-117.566z M191.842-117.621c-0.388,0-0.783-0.066-1.173-0.208
			c-1.772-0.646-2.688-2.608-2.043-4.384c2.222-6.1,3.349-12.518,3.349-19.075v-0.128c0-1.891,1.53-3.422,3.42-3.422
			c1.891,0,3.422,1.531,3.422,3.422v0.128c0,7.358-1.266,14.563-3.76,21.416C194.551-118.484,193.24-117.621,191.842-117.621z
			 M80.559-158.05c-0.39,0-0.781-0.064-1.168-0.206c-1.775-0.645-2.691-2.607-2.049-4.383c2.491-6.871,6.146-13.208,10.862-18.833
			c1.213-1.447,3.371-1.638,4.818-0.424c1.447,1.213,1.637,3.372,0.424,4.819c-4.199,5.011-7.455,10.654-9.672,16.772
			C83.27-158.914,81.956-158.05,80.559-158.05z M191.798-158.226c-1.395,0-2.702-0.859-3.213-2.246
			c-2.235-6.107-5.508-11.739-9.721-16.736c-1.219-1.445-1.035-3.603,0.41-4.821c1.445-1.217,3.602-1.035,4.82,0.41
			c4.729,5.61,8.403,11.934,10.916,18.794c0.649,1.774-0.263,3.739-2.035,4.389C192.587-158.293,192.189-158.226,191.798-158.226z
			 M106.548-189.087c-1.178,0-2.325-0.611-2.961-1.705c-0.948-1.634-0.395-3.728,1.24-4.677c6.342-3.681,13.213-6.192,20.42-7.466
			c1.859-0.328,3.64,0.914,3.965,2.774c0.33,1.861-0.911,3.635-2.772,3.963c-6.416,1.134-12.531,3.37-18.176,6.646
			C107.723-189.237,107.13-189.087,106.548-189.087z M165.714-189.181c-0.579,0-1.166-0.148-1.704-0.458
			c-5.654-3.261-11.777-5.477-18.199-6.59c-1.863-0.322-3.109-2.093-2.787-3.956c0.322-1.862,2.092-3.106,3.955-2.786
			c7.217,1.251,14.096,3.742,20.449,7.404c1.637,0.943,2.198,3.035,1.256,4.672C168.051-189.794,166.898-189.181,165.714-189.181z"
			/>
	</g>
	<text transform="matrix(1 0 0 1 119.1211 -117.354)" fill="#95C11F" font-family="'Dosis-Bold'" font-size="67">2</text>
</g>
</svg>
