<?xml version="1.0" encoding="utf-8"?>
<!-- Generator: Adobe Illustrator 15.1.0, SVG Export Plug-In . SVG Version: 6.00 Build 0)  -->
<!DOCTYPE svg PUBLIC "-//W3C//DTD SVG 1.1//EN" "http://www.w3.org/Graphics/SVG/1.1/DTD/svg11.dtd">
<svg version="1.1" id="Ebene_1" xmlns="http://www.w3.org/2000/svg" xmlns:xlink="http://www.w3.org/1999/xlink" x="0px" y="0px"
	 width="125.595px" height="124.337px" viewBox="0 0 125.595 124.337" enable-background="new 0 0 125.595 124.337"
	 xml:space="preserve">
<g>
	<g>
		<path fill="#95C11F" d="M62.799,124.337c-3.641,0-7.285-0.314-10.838-0.934c-1.859-0.327-3.105-2.098-2.781-3.96
			c0.326-1.861,2.096-3.105,3.959-2.781c6.348,1.109,13.025,1.104,19.371-0.01c1.855-0.321,3.633,0.918,3.959,2.779
			s-0.916,3.634-2.777,3.961C70.122,124.018,66.458,124.337,62.799,124.337z M33.229,116.437c-0.58,0-1.168-0.148-1.707-0.459
			c-6.332-3.659-11.936-8.358-16.654-13.967c-1.217-1.446-1.031-3.604,0.416-4.82c1.445-1.216,3.604-1.031,4.82,0.416
			c4.205,4.999,9.199,9.187,14.842,12.448c1.633,0.944,2.193,3.036,1.25,4.673C35.561,115.824,34.413,116.437,33.229,116.437z
			 M92.411,116.41c-1.182,0-2.33-0.611-2.965-1.707c-0.945-1.637-0.387-3.729,1.246-4.675c5.641-3.265,10.629-7.457,14.83-12.459
			c1.213-1.445,3.371-1.634,4.818-0.419c1.447,1.214,1.637,3.373,0.42,4.819c-4.711,5.612-10.311,10.316-16.639,13.98
			C93.581,116.262,92.991,116.41,92.411,116.41z M7.188,85.454c-1.398,0-2.709-0.86-3.215-2.248C1.471,76.356,0.2,69.155,0.192,61.8
			c0-1.888,1.529-3.422,3.418-3.423h0.004c1.887,0,3.42,1.529,3.42,3.417c0.008,6.553,1.141,12.968,3.367,19.066
			c0.646,1.774-0.266,3.738-2.041,4.387C7.973,85.387,7.577,85.454,7.188,85.454z M118.428,85.399c-0.387,0-0.783-0.066-1.172-0.208
			c-1.773-0.646-2.689-2.608-2.043-4.384c2.221-6.1,3.348-12.518,3.348-19.075v-0.128c0-1.891,1.531-3.422,3.42-3.422
			c1.891,0,3.422,1.531,3.422,3.422v0.128c0,7.358-1.266,14.563-3.76,21.416C121.137,84.536,119.827,85.399,118.428,85.399z
			 M7.145,44.97c-0.389,0-0.781-0.065-1.168-0.206c-1.775-0.645-2.691-2.607-2.049-4.383c2.492-6.871,6.146-13.208,10.863-18.833
			c1.213-1.447,3.371-1.638,4.818-0.424c1.447,1.213,1.637,3.372,0.424,4.819c-4.199,5.011-7.455,10.654-9.672,16.772
			C9.856,44.106,8.543,44.97,7.145,44.97z M118.385,44.794c-1.395,0-2.703-0.859-3.213-2.246
			c-2.236-6.107-5.508-11.739-9.721-16.736c-1.219-1.445-1.035-3.603,0.41-4.821c1.445-1.217,3.602-1.035,4.82,0.41
			c4.73,5.61,8.404,11.934,10.916,18.794c0.65,1.774-0.262,3.739-2.035,4.389C119.174,44.726,118.776,44.794,118.385,44.794z
			 M33.135,13.932c-1.178,0-2.326-0.611-2.961-1.705c-0.949-1.634-0.395-3.728,1.24-4.677c6.342-3.681,13.213-6.192,20.42-7.466
			c1.859-0.328,3.639,0.914,3.965,2.774c0.33,1.861-0.912,3.635-2.773,3.963c-6.416,1.134-12.531,3.37-18.176,6.646
			C34.309,13.782,33.717,13.932,33.135,13.932z M92.301,13.839c-0.58,0-1.166-0.148-1.705-0.458
			c-5.654-3.261-11.777-5.477-18.199-6.59c-1.863-0.322-3.109-2.093-2.787-3.956c0.322-1.862,2.092-3.106,3.955-2.786
			c7.217,1.251,14.096,3.742,20.449,7.404c1.637,0.943,2.199,3.035,1.256,4.672C94.637,13.225,93.485,13.839,92.301,13.839z"/>
	</g>
	<text transform="matrix(1 0 0 1 44.7075 86.4219)" fill="#95C11F" font-family="'Dosis-Bold'" font-size="67">4</text>
</g>
</svg>
