<?xml version="1.0" encoding="utf-8"?>
<!-- Generator: Adobe Illustrator 15.1.0, SVG Export Plug-In . SVG Version: 6.00 Build 0)  -->
<!DOCTYPE svg PUBLIC "-//W3C//DTD SVG 1.1//EN" "http://www.w3.org/Graphics/SVG/1.1/DTD/svg11.dtd">
<svg version="1.1" id="Ebene_1" xmlns="http://www.w3.org/2000/svg" xmlns:xlink="http://www.w3.org/1999/xlink" x="0px" y="0px"
	 width="24px" height="24px" viewBox="0 0 24 24" enable-background="new 0 0 24 24" xml:space="preserve">
<path fill="#94C11F" d="M24,2v22H0V2h3v1c0,1.103,0.897,2,2,2s2-0.897,2-2V2h10v1c0,1.103,0.896,2,2,2s2-0.897,2-2V2H24z M22,8H2v14
	h20V8z M20,1c0-0.552-0.447-1-1-1s-1,0.448-1,1v2c0,0.552,0.447,1,1,1s1-0.448,1-1V1z M6,3c0,0.552-0.447,1-1,1S4,3.552,4,3V1
	c0-0.552,0.447-1,1-1s1,0.448,1,1V3z M7,14.729l0.855-0.791c1,0.484,1.635,0.853,2.76,1.654c2.113-2.398,3.511-3.616,6.105-5.231
	L17,11.001C14.859,12.87,13.291,14.95,11.033,19C9.64,17.359,8.711,16.314,7,14.729z"/>
</svg>
