<?xml version="1.0" encoding="utf-8"?>
<!-- Generator: Adobe Illustrator 15.1.0, SVG Export Plug-In . SVG Version: 6.00 Build 0)  -->
<!DOCTYPE svg PUBLIC "-//W3C//DTD SVG 1.1//EN" "http://www.w3.org/Graphics/SVG/1.1/DTD/svg11.dtd">
<svg version="1.1" id="Ebene_1" xmlns="http://www.w3.org/2000/svg" xmlns:xlink="http://www.w3.org/1999/xlink" x="0px" y="0px"
	 width="316.668px" height="136.199px" viewBox="0 0 316.668 136.199" enable-background="new 0 0 316.668 136.199"
	 xml:space="preserve">
<g id="Ebene_1_1_" display="none">
</g>
<path fill="#FFFFFF" d="M209.517,119.278h-8.51c0-13.235,0.508-15.14-7.514-17.002c-12.271-2.831-23.856-5.506-28.08-14.743
	c-1.537-3.373-2.558-8.939,1.323-16.269c8.71-16.452,10.896-30.559,5.985-38.71c-5.718-9.506-23.086-9.559-28.855,0.146
	c-4.922,8.261-2.711,22.291,6.071,38.488c3.967,7.306,2.975,12.883,1.441,16.272c-4.188,9.287-15.672,11.937-27.829,14.74
	c-8.375,1.937-7.842,3.711-7.842,17.075H107.2l-0.021-5.294c0-10.746,0.85-16.951,13.555-19.889
	c14.352-3.314,28.524-6.28,21.708-18.842c-20.186-37.227-5.758-58.334,15.917-58.334c21.249,0,36.043,20.327,15.918,58.334
	c-6.612,12.485,7.034,15.457,21.708,18.842c12.703,2.938,13.554,9.143,13.554,19.889L209.517,119.278z M152.034,93.688l3.879,8.53
	h4.965l3.928-8.53H152.034z M164.806,119.278l-3-12.795h-6.89l-3.003,12.795H164.806z"/>
<g>
	<g>
		<polygon fill="#FFFFFF" points="226.906,136.199 198.906,136.199 198.906,130.199 220.906,130.199 220.906,108.199 
			226.906,108.199 		"/>
	</g>
	<g>
		<polygon fill="#FFFFFF" points="117.81,136.199 89.81,136.199 89.81,108.199 95.81,108.199 95.81,130.199 117.81,130.199 		"/>
	</g>
	<g>
		<polygon fill="#FFFFFF" points="95.81,28 89.81,28 89.81,0 117.81,0 117.81,6 95.81,6 		"/>
	</g>
	<g>
		<polygon fill="#FFFFFF" points="226.906,28 220.906,28 220.906,6 198.906,6 198.906,0 226.906,0 		"/>
	</g>
</g>
<g opacity="0.4">
	<path fill="#FFFFFF" d="M100.477,44.378c-3.271-5.435-9.255-8.552-16.416-8.552c-7.218,0-13.243,3.166-16.528,8.686
		c-4.919,8.262-3.419,20.574,4.224,34.668c1.183,2.18,1.446,3.933,0.804,5.356c-1.554,3.448-8.433,5.035-15.085,6.568l-0.647,0.15
		c-9.799,2.263-10.506,7.271-10.506,15.254l0.02,4.796h8.104l-0.002-2.625c-0.021-8.05-0.021-8.531,4.856-9.659
		c8.976-2.07,17.454-4.025,20.664-11.145c1.194-2.64,1.978-6.963-1.066-12.569c-6.131-11.31-7.728-21.02-4.378-26.642
		c1.737-2.921,5.394-4.735,9.542-4.735c4.113,0,7.736,1.776,9.456,4.635c3.338,5.541,1.762,15.31-4.323,26.804
		c-0.865,1.637-1.465,3.273-1.78,4.865l-0.237,1.193h8.258l0.235-0.666c0.187-0.528,0.417-1.049,0.705-1.592
		C103.932,64.895,105.39,52.538,100.477,44.378z"/>
	<path fill="#FFFFFF" d="M45.827,49.906c-2.659-4.417-7.51-6.95-13.308-6.95c-5.844,0-10.727,2.572-13.396,7.057
		c-3.955,6.644-2.779,16.489,3.312,27.722c0.856,1.579,1.059,2.822,0.617,3.802c-1.128,2.502-6.423,3.723-11.543,4.904l-0.511,0.118
		c-8.021,1.853-8.621,6.131-8.621,12.45l0.017,4.234h7.299l-0.002-2.531c-0.016-6.338-0.016-6.338,3.459-7.142
		c7.175-1.655,13.951-3.218,16.568-9.024c0.982-2.17,1.632-5.719-0.853-10.297c-4.743-8.749-6.001-16.217-3.452-20.495
		c1.281-2.157,4.005-3.497,7.104-3.497c3.073,0,5.771,1.311,7.04,3.421c2.539,4.214,1.295,11.731-3.413,20.623
		c-0.702,1.326-1.188,2.656-1.444,3.953l-0.297,1.492h7.386l0.295-0.832c0.142-0.401,0.313-0.791,0.526-1.191
		C48.635,66.347,49.777,56.468,45.827,49.906z"/>
</g>
<g opacity="0.4">
	<path fill="#FFFFFF" d="M260.601,91.255l-0.647-0.15c-6.652-1.534-13.531-3.12-15.086-6.568c-0.644-1.425-0.38-3.177,0.804-5.357
		c7.643-14.093,9.143-26.405,4.225-34.667c-3.286-5.52-9.311-8.686-16.528-8.686c-7.16,0-13.145,3.117-16.415,8.552
		c-4.913,8.161-3.456,20.517,4.104,34.792c0.287,0.543,0.519,1.064,0.705,1.594l0.235,0.667h8.256l-0.235-1.194
		c-0.313-1.589-0.914-3.227-1.781-4.865c-6.085-11.496-7.66-21.266-4.321-26.806c1.719-2.859,5.342-4.635,9.455-4.635
		c4.148,0,7.806,1.814,9.543,4.736c3.35,5.621,1.753,15.331-4.378,26.64c-3.046,5.605-2.263,9.931-1.067,12.57
		c3.21,7.119,11.688,9.074,20.662,11.144c4.879,1.128,4.878,1.61,4.857,9.659l-0.003,2.625h8.104l0.019-4.801
		C271.104,98.526,270.397,93.518,260.601,91.255z"/>
	<path fill="#FFFFFF" d="M305.999,87.024l-0.513-0.118c-5.119-1.181-10.415-2.402-11.543-4.904c-0.44-0.979-0.239-2.223,0.616-3.801
		c6.092-11.234,7.27-21.079,3.313-27.722c-2.67-4.485-7.554-7.057-13.396-7.057c-5.798,0-10.647,2.533-13.308,6.951
		c-3.95,6.562-2.81,16.441,3.216,27.817c0.213,0.403,0.386,0.792,0.527,1.19l0.295,0.834h7.384l-0.295-1.493
		c-0.257-1.296-0.743-2.625-1.446-3.953c-4.707-8.891-5.95-16.408-3.411-20.624c1.27-2.109,3.966-3.42,7.039-3.42
		c3.101,0,5.822,1.34,7.104,3.499c2.549,4.275,1.29,11.745-3.452,20.491c-2.484,4.578-1.835,8.127-0.854,10.298
		c2.618,5.808,9.396,7.37,16.569,9.024c3.475,0.803,3.475,0.803,3.459,7.141l-0.002,2.533h7.3l0.017-4.239
		C314.619,93.156,314.021,88.876,305.999,87.024z"/>
</g>
</svg>
