<?xml version="1.0" encoding="utf-8"?>
<!-- Generator: Adobe Illustrator 15.1.0, SVG Export Plug-In . SVG Version: 6.00 Build 0)  -->
<!DOCTYPE svg PUBLIC "-//W3C//DTD SVG 1.1//EN" "http://www.w3.org/Graphics/SVG/1.1/DTD/svg11.dtd">
<svg version="1.1" id="Ebene_1" xmlns="http://www.w3.org/2000/svg" xmlns:xlink="http://www.w3.org/1999/xlink" x="0px" y="0px"
	 width="786.074px" height="126.891px" viewBox="0 0 786.074 126.891" enable-background="new 0 0 786.074 126.891"
	 xml:space="preserve">
<path fill="#95C11F" d="M56.443,2.585L0,58.663L9.886,70.06l48.373-48.14c1.939-1.14,3.927-0.453,5.949,2.038
	c2.028,2.5,2.316,4.438,0.869,5.815L16.633,77.843l17.141,19.806L47.587,83.85l-6.349-7.498l42.926-42.827
	c4.855-5.813,2.989-13.688-5.607-23.646C69.962-0.075,62.586-2.508,56.443,2.585z"/>
<polygon fill="#2B2A93" points="75.564,61.784 87.843,75.986 73.763,90.002 61.472,75.82 "/>
<path fill="#2B2A93" d="M36.143,100.97l14.34,16.566c8.936,9.657,15.864,11.84,20.786,6.532l56.422-56.232l-26.93-31.185
	l-14.707,14.6l16.1,18.49l-34.19,33.377c-1.433,1.562-3.548,0.534-6.348-3.062L50.142,87.05L36.143,100.97"/>
<path fill="#95C11F" d="M197.974,52.591c0,2.975-0.507,5.646-1.519,8.018c-1.012,2.371-2.435,4.381-4.269,6.021
	c-1.835,1.646-4.048,2.928-6.64,3.844c-2.595,0.917-5.472,1.375-8.633,1.375h-6.261v24.946h-12.045V33.525h19.351
	c2.973,0,5.692,0.428,8.158,1.279c2.466,0.854,4.568,2.104,6.309,3.747c1.737,1.646,3.098,3.652,4.079,6.023
	C197.483,46.948,197.974,49.618,197.974,52.591z M185.547,52.591c0-2.973-0.786-5.312-2.356-7.021
	c-1.571-1.708-3.897-2.562-6.975-2.562h-5.656v19.446h5.09c3.205,0,5.656-0.808,7.353-2.419
	C184.698,58.424,185.547,55.944,185.547,52.591z"/>
<path fill="#95C11F" d="M205.866,96.795V33.525h11.952v53.5h19.92v9.771L205.866,96.795L205.866,96.795z"/>
<path fill="#95C11F" d="M281.611,96.795l-4.106-16.029h-19.039l-4.079,16.029h-12.143l18.023-63.271h15.749l18.021,63.271H281.611z
	 M267.856,42.156l-7.304,29.786h14.755L267.856,42.156z"/>
<path fill="#95C11F" d="M336.334,43.674c-1.2-0.506-2.547-0.899-4.028-1.187c-1.485-0.284-2.957-0.427-4.409-0.427
	c-3.416,0-6.326,0.538-8.729,1.611c-2.402,1.076-4.361,2.596-5.881,4.555c-1.519,1.96-2.625,4.301-3.319,7.02
	c-0.693,2.72-1.043,5.691-1.043,8.917c0,3.543,0.252,6.799,0.761,9.771c0.506,2.974,1.438,5.52,2.799,7.637
	c1.356,2.119,3.258,3.764,5.688,4.934c2.438,1.171,5.582,1.755,9.439,1.755c3.225,0,6.32-0.602,9.297-1.803l0.188,9.96
	c-1.836,0.568-3.729,0.948-5.688,1.139c-1.961,0.189-3.859,0.284-5.691,0.284c-5.562,0-10.215-0.791-13.941-2.371
	c-3.732-1.58-6.735-3.822-9.015-6.732c-2.274-2.907-3.89-6.437-4.839-10.575c-0.947-4.144-1.423-8.808-1.423-13.992
	c0-4.363,0.617-8.475,1.851-12.332c1.232-3.854,3.1-7.225,5.599-10.103c2.499-2.877,5.609-5.139,9.343-6.782
	c3.729-1.646,8.125-2.467,13.188-2.467c3.226,0,5.755,0.176,7.591,0.521c1.832,0.35,3.381,0.711,4.646,1.091L336.334,43.674z"/>
<path fill="#95C11F" d="M346.807,96.795V33.525h33.676v9.105h-21.726V59.61h20.02v9.104h-20.02v18.688h22.861v9.392L346.807,96.795
	L346.807,96.795z"/>
<path fill="#2B2A93" d="M444.775,96.795h-13.658l-9.297-50.938L413,96.795h-13.66l-12.333-63.271h12.427l7.591,50.273l8.729-50.273
	h13.09l9.016,50.273l7.111-50.273h12.145L444.775,96.795z"/>
<path fill="#2B2A93" d="M514.251,64.163c0,4.302-0.459,8.478-1.375,12.521c-0.918,4.047-2.42,7.637-4.506,10.767
	c-2.088,3.132-4.822,5.646-8.205,7.541c-3.385,1.896-7.541,2.847-12.475,2.847c-5.123,0-9.378-0.917-12.762-2.75
	c-3.385-1.834-6.104-4.3-8.157-7.397c-2.058-3.1-3.493-6.67-4.313-10.721c-0.822-4.047-1.231-8.312-1.231-12.807
	c0-4.174,0.507-8.173,1.521-12c1.01-3.825,2.592-7.192,4.742-10.103c2.146-2.908,4.896-5.231,8.252-6.974
	c3.354-1.737,7.336-2.607,11.953-2.607c4.866,0,8.993,0.839,12.379,2.515c3.383,1.676,6.117,3.937,8.205,6.781
	c2.086,2.846,3.604,6.199,4.555,10.056C513.777,55.691,514.251,59.8,514.251,64.163z M501.824,64.212
	c0-2.271-0.174-4.73-0.521-7.383c-0.348-2.649-1.043-5.111-2.086-7.385c-1.045-2.271-2.48-4.149-4.314-5.634
	c-1.834-1.481-4.236-2.227-7.209-2.227c-2.908,0-5.279,0.757-7.113,2.271c-1.836,1.516-3.26,3.394-4.271,5.634
	c-1.015,2.24-1.707,4.688-2.089,7.337c-0.379,2.649-0.566,5.111-0.566,7.383c0,2.396,0.143,5.021,0.428,7.857
	c0.285,2.841,0.916,5.492,1.896,7.951c0.979,2.463,2.4,4.527,4.27,6.199c1.865,1.674,4.351,2.51,7.447,2.51
	c3.096,0,5.58-0.836,7.444-2.51c1.862-1.672,3.306-3.736,4.315-6.199c1.01-2.459,1.658-5.11,1.943-7.951
	C501.682,69.233,501.824,66.611,501.824,64.212z"/>
<path fill="#2B2A93" d="M554.984,96.795c-0.89-1.44-1.629-2.949-2.23-4.521c-0.602-1.568-1.25-3.143-1.941-4.709l-5.027-11.396
	c-0.633-1.38-1.438-2.666-2.42-3.857c-0.979-1.192-2.354-1.791-4.125-1.791h-2.656v26.274h-12.047V33.525h19.258
	c2.847,0,5.5,0.304,7.968,0.902c2.468,0.604,4.603,1.571,6.403,2.904c1.801,1.334,3.227,3.062,4.271,5.188
	c1.043,2.127,1.562,4.683,1.562,7.664c0,2.794-0.43,5.188-1.28,7.188c-0.854,1.999-1.942,3.684-3.271,5.045
	c-1.328,1.364-2.814,2.443-4.459,3.236c-1.646,0.796-3.228,1.383-4.742,1.762c2.148,0.378,3.855,1.31,5.123,2.787
	c1.264,1.479,2.242,3.039,2.939,4.676l5.784,12.939c0.694,1.574,1.375,3.104,2.038,4.582c0.664,1.479,1.439,2.94,2.324,4.393
	h-13.472L554.984,96.795L554.984,96.795z M551.568,50.641c0-2.925-0.881-4.989-2.643-6.197c-1.762-1.207-4.146-1.812-7.163-1.812
	h-5.276v18.782h4.521c3.396,0,6-0.938,7.822-2.812C550.656,56.727,551.568,54.073,551.568,50.641z"/>
<path fill="#2B2A93" d="M607.118,96.795L588.05,65.207v31.588h-12.047V33.525h11.953v27.794l18.781-27.794h13.562l-20.584,29.218
	l21.439,34.055L607.118,96.795L607.118,96.795z"/>
<path fill="#2B2A93" d="M628.023,96.795V33.525h33.676v9.105h-21.724V59.61h20.017v9.104h-20.017v18.688h22.858v9.392
	L628.023,96.795L628.023,96.795z"/>
<path fill="#2B2A93" d="M702.82,96.795c-0.888-1.44-1.629-2.949-2.23-4.521c-0.602-1.568-1.25-3.143-1.941-4.709l-5.027-11.396
	c-0.635-1.38-1.438-2.666-2.42-3.857c-0.979-1.192-2.354-1.791-4.127-1.791h-2.656v26.274H672.37V33.525h19.256
	c2.849,0,5.502,0.304,7.969,0.902c2.468,0.604,4.604,1.571,6.402,2.904c1.803,1.334,3.228,3.062,4.271,5.188
	c1.043,2.127,1.563,4.683,1.563,7.664c0,2.794-0.428,5.188-1.281,7.188c-0.854,1.999-1.942,3.684-3.271,5.045
	c-1.326,1.364-2.812,2.443-4.457,3.236c-1.646,0.796-3.228,1.383-4.742,1.762c2.147,0.378,3.854,1.31,5.121,2.787
	c1.266,1.479,2.244,3.039,2.938,4.676l5.786,12.939c0.693,1.574,1.375,3.104,2.039,4.582c0.664,1.479,1.438,2.94,2.324,4.393h-13.47
	L702.82,96.795L702.82,96.795z M699.404,50.641c0-2.925-0.881-4.989-2.642-6.197c-1.763-1.207-4.147-1.812-7.162-1.812h-5.278
	v18.782h4.522c3.396,0,6-0.938,7.821-2.812C698.493,56.727,699.404,54.073,699.404,50.641z"/>
<path fill="#2B2A93" d="M759.884,78.202c0,3.414-0.646,6.354-1.941,8.821c-1.298,2.468-3.033,4.507-5.218,6.117
	c-2.185,1.611-4.683,2.799-7.494,3.56c-2.812,0.759-5.737,1.138-8.772,1.138c-2.404,0-4.774-0.127-7.115-0.379
	c-2.34-0.254-4.614-0.729-6.827-1.423l0.188-9.581c1.832,0.816,3.793,1.4,5.881,1.752c2.086,0.352,4.144,0.523,6.166,0.523
	c1.646,0,3.228-0.144,4.742-0.422c1.518-0.283,2.877-0.802,4.078-1.554c1.2-0.751,2.147-1.753,2.848-3.007
	c0.693-1.253,1.043-2.853,1.043-4.792c0-2.379-0.616-4.211-1.852-5.494c-1.23-1.284-2.769-2.352-4.603-3.194
	c-1.834-0.847-3.843-1.646-6.021-2.406c-2.183-0.76-4.189-1.784-6.023-3.081c-1.834-1.298-3.364-3.021-4.602-5.171
	c-1.232-2.148-1.851-5.061-1.851-8.729c0-3.225,0.614-5.989,1.851-8.3c1.231-2.309,2.879-4.205,4.934-5.689
	c2.058-1.484,4.412-2.594,7.066-3.319c2.655-0.729,5.438-1.092,8.35-1.092c2.275,0,4.521,0.157,6.732,0.476
	c2.215,0.316,4.428,0.759,6.643,1.328l-2.373,9.104c-1.645-0.628-3.317-1.086-5.023-1.371c-1.707-0.286-3.48-0.432-5.312-0.432
	c-1.52,0-2.938,0.11-4.27,0.33c-1.328,0.221-2.468,0.646-3.416,1.274c-0.947,0.628-1.707,1.494-2.275,2.596
	c-0.567,1.102-0.854,2.532-0.854,4.294c0,2.328,0.634,4.137,1.896,5.427c1.264,1.289,2.83,2.375,4.695,3.256
	c1.862,0.883,3.891,1.719,6.069,2.509c2.185,0.791,4.202,1.851,6.069,3.179c1.865,1.325,3.431,3.052,4.695,5.168
	C759.251,71.738,759.884,74.6,759.884,78.202z"/>
<path fill="#2B2A93" d="M786.074,42.68c0,1.472-0.244,2.844-0.734,4.116c-0.487,1.273-1.172,2.382-2.043,3.323
	c-0.873,0.94-1.906,1.676-3.104,2.205c-1.195,0.528-2.488,0.794-3.882,0.794s-2.688-0.261-3.881-0.779
	c-1.196-0.521-2.229-1.245-3.104-2.176c-0.871-0.932-1.553-2.033-2.043-3.309c-0.49-1.274-0.734-2.666-0.734-4.177
	c0-1.294,0.244-2.527,0.734-3.703c0.49-1.178,1.172-2.222,2.043-3.133c0.873-0.91,1.906-1.637,3.104-2.176
	c1.192-0.539,2.487-0.81,3.881-0.81s2.687,0.271,3.882,0.81c1.193,0.54,2.229,1.26,3.104,2.161c0.871,0.901,1.556,1.945,2.043,3.132
	C785.829,40.147,786.074,41.386,786.074,42.68z M784.132,42.68c0-1.019-0.193-2.015-0.588-2.982
	c-0.393-0.97-0.932-1.838-1.617-2.604c-0.688-0.765-1.51-1.377-2.469-1.838c-0.961-0.46-2.012-0.689-3.146-0.689
	c-1.136,0-2.188,0.227-3.146,0.677s-1.783,1.054-2.471,1.809c-0.688,0.754-1.229,1.622-1.615,2.604
	c-0.396,0.979-0.59,1.99-0.59,3.028c0,1.234,0.194,2.388,0.59,3.454c0.391,1.069,0.93,1.99,1.615,2.766
	c0.688,0.772,1.512,1.388,2.471,1.839c0.961,0.45,2.01,0.676,3.146,0.676c1.136,0,2.188-0.226,3.146-0.676
	c0.958-0.451,1.781-1.068,2.469-1.854c0.688-0.782,1.229-1.706,1.617-2.764C783.938,45.062,784.132,43.915,784.132,42.68z
	 M778.546,48.65c-0.176-0.273-0.321-0.562-0.438-0.866c-0.119-0.305-0.257-0.604-0.412-0.897l-1.062-2.146
	c-0.137-0.274-0.303-0.534-0.5-0.779c-0.193-0.245-0.469-0.368-0.82-0.368h-0.646v5.06h-2.059V36.859h3.354
	c0.566,0,1.104,0.067,1.604,0.206c0.5,0.138,0.932,0.344,1.293,0.617c0.359,0.273,0.648,0.616,0.867,1.027
	c0.215,0.412,0.32,0.894,0.32,1.44c0,0.862-0.26,1.52-0.775,1.971c-0.521,0.45-1.134,0.774-1.839,0.971
	c0.409,0.196,0.705,0.412,0.882,0.646c0.178,0.235,0.322,0.472,0.439,0.706l1.205,2.471c0.156,0.294,0.299,0.588,0.426,0.882
	c0.13,0.294,0.279,0.578,0.457,0.854L778.546,48.65L778.546,48.65z M777.9,40.24c0-0.589-0.191-1.024-0.572-1.309
	c-0.385-0.284-0.908-0.429-1.574-0.429h-1.088v3.56h0.971c0.744,0,1.311-0.134,1.689-0.396C777.708,41.402,777.9,40.925,777.9,40.24
	z"/>
</svg>
