<?xml version="1.0" encoding="utf-8"?>
<!-- Generator: Adobe Illustrator 15.1.0, SVG Export Plug-In . SVG Version: 6.00 Build 0)  -->
<!DOCTYPE svg PUBLIC "-//W3C//DTD SVG 1.1//EN" "http://www.w3.org/Graphics/SVG/1.1/DTD/svg11.dtd">
<svg version="1.1" id="Ebene_1" xmlns="http://www.w3.org/2000/svg" xmlns:xlink="http://www.w3.org/1999/xlink" x="0px" y="0px"
	 width="24px" height="24px" viewBox="0 0 24 24" enable-background="new 0 0 24 24" xml:space="preserve">
<path fill="#94C11F" d="M16.871,4.312C16.589,3.548,15.861,3,15,3c-1.298,0-2.312,1.244-1.904,2.582
	C14.207,5.187,15.441,4.479,16.871,4.312z M13,13c0-0.552-0.447-1-1-1c-0.553,0-1,0.448-1,1s0.447,1,1,1C12.553,14,13,13.552,13,13z
	 M18.318,17.873c1.463-0.311,2.471-1.49,2.146-3.227C21.863,16.163,20.309,18.595,18.318,17.873z M4.317,17.873
	c1.463-0.311,2.471-1.49,2.146-3.227C7.862,16.163,6.307,18.595,4.317,17.873z M9,3C8.139,3,7.411,3.548,7.129,4.312
	c1.429,0.168,2.664,0.875,3.775,1.27C11.313,4.244,10.298,3,9,3z M10.134,8.494c1.208,0.396,2.517,0.398,3.731,0
	c2.615-0.854,3.515-1.986,4.451-0.331c0.393,0.691,1.332,2.337,1.666,2.934c-2.854-0.575-5.572,1.417-5.94,4.254
	c-1.233-0.621-2.794-0.647-4.084,0c-0.369-2.84-3.086-4.83-5.941-4.254C4.431,10.359,5.2,9.016,5.682,8.164
	C6.618,6.509,7.516,7.638,10.134,8.494z M17.305,5.319c-1.393,0-2.859,0.881-4.062,1.274c-0.812,0.266-1.685,0.263-2.486,0
	C9.556,6.2,8.088,5.319,6.695,5.319c-0.998,0-1.958,0.452-2.754,1.859C1.535,11.433,0,13.865,0,16c0,2.761,2.238,5,5,5
	c4.039,0,4.156-4.123,7-4.123c2.844,0,2.961,4.123,7,4.123c2.762,0,5-2.239,5-5c0-2.135-1.535-4.567-3.941-8.821
	C19.262,5.771,18.303,5.319,17.305,5.319L17.305,5.319z M19,19c-1.654,0-3-1.346-3-3s1.346-3,3-3s3,1.346,3,3S20.654,19,19,19z
	 M5,19c-1.654,0-3-1.346-3-3s1.346-3,3-3s3,1.346,3,3S6.654,19,5,19z"/>
</svg>
