<?xml version="1.0" encoding="utf-8"?>
<!-- Generator: Adobe Illustrator 15.1.0, SVG Export Plug-In . SVG Version: 6.00 Build 0)  -->
<!DOCTYPE svg PUBLIC "-//W3C//DTD SVG 1.1//EN" "http://www.w3.org/Graphics/SVG/1.1/DTD/svg11.dtd">
<svg version="1.1" id="Ebene_1" xmlns="http://www.w3.org/2000/svg" xmlns:xlink="http://www.w3.org/1999/xlink" x="0px" y="0px"
	 width="24px" height="24px" viewBox="0 0 24 24" enable-background="new 0 0 24 24" xml:space="preserve">
<path fill="#94C11F" d="M23.995,24H22c0-3.104,0.119-3.55-1.762-3.986c-2.877-0.664-5.594-1.291-6.584-3.457
	c-0.36-0.791-0.6-2.096,0.311-3.814c2.042-3.857,2.555-7.165,1.403-9.076C14.027,1.437,9.955,1.425,8.602,3.7
	c-1.154,1.937-0.635,5.227,1.424,9.024c0.93,1.713,0.697,3.021,0.338,3.815c-0.982,2.178-3.675,2.799-6.525,3.456
	C1.875,20.45,2,20.866,2,24H0.005L0,22.759c0-2.52,0.199-3.975,3.178-4.663c3.365-0.777,6.688-1.473,5.09-4.418
	C3.535,4.949,6.918,0,12,0c4.982,0,8.451,4.766,3.732,13.678c-1.551,2.928,1.649,3.624,5.09,4.418
	C23.801,18.784,24,20.239,24,22.759L23.995,24z M10.517,18l0.91,2h1.164l0.921-2H10.517z M13.512,24l-0.703-3h-1.616l-0.704,3
	H13.512z"/>
</svg>
