<?xml version="1.0" encoding="utf-8"?>
<!-- Generator: Adobe Illustrator 15.1.0, SVG Export Plug-In . SVG Version: 6.00 Build 0)  -->
<!DOCTYPE svg PUBLIC "-//W3C//DTD SVG 1.1//EN" "http://www.w3.org/Graphics/SVG/1.1/DTD/svg11.dtd">
<svg version="1.1" id="Ebene_1" xmlns="http://www.w3.org/2000/svg" xmlns:xlink="http://www.w3.org/1999/xlink" x="0px" y="0px"
	 width="24px" height="24px" viewBox="0 0 24 24" enable-background="new 0 0 24 24" xml:space="preserve">
<path fill="#94C11F" d="M12,2c5.514,0,10,4.486,10,10c0,5.514-4.486,10-10,10C6.486,22,2,17.514,2,12C2,6.486,6.486,2,12,2z M12,0
	C5.373,0,0,5.373,0,12s5.373,12,12,12s12-5.373,12-12S18.627,0,12,0z M18.25,8.891l-1.421-1.409L10.724,13.7l-3.078-2.937
	L6.25,12.199l4.5,4.318L18.25,8.891z"/>
</svg>
