<?xml version="1.0" encoding="utf-8"?>
<!-- Generator: Adobe Illustrator 15.1.0, SVG Export Plug-In . SVG Version: 6.00 Build 0)  -->
<!DOCTYPE svg PUBLIC "-//W3C//DTD SVG 1.1//EN" "http://www.w3.org/Graphics/SVG/1.1/DTD/svg11.dtd">
<svg version="1.1" id="Ebene_1" xmlns="http://www.w3.org/2000/svg" xmlns:xlink="http://www.w3.org/1999/xlink" x="0px" y="0px"
	 width="125.595px" height="124.337px" viewBox="0 0 125.595 124.337" enable-background="new 0 0 125.595 124.337"
	 xml:space="preserve">
<g>
	<g>
		<path fill="#95C11F" d="M62.606,124.337c-3.639,0-7.285-0.314-10.836-0.934c-1.861-0.327-3.106-2.098-2.783-3.96
			c0.326-1.861,2.098-3.105,3.959-2.781c6.348,1.109,13.025,1.104,19.371-0.01c1.856-0.321,3.633,0.918,3.961,2.779
			c0.326,1.861-0.918,3.634-2.779,3.961C69.93,124.018,66.265,124.337,62.606,124.337z M33.037,116.437
			c-0.58,0-1.169-0.148-1.706-0.459c-6.334-3.659-11.938-8.358-16.655-13.967c-1.218-1.446-1.03-3.604,0.415-4.82
			c1.445-1.216,3.604-1.031,4.82,0.416c4.207,4.999,9.199,9.187,14.842,12.448c1.635,0.944,2.195,3.036,1.251,4.673
			C35.368,115.824,34.221,116.437,33.037,116.437z M92.219,116.41c-1.181,0-2.331-0.611-2.964-1.707
			c-0.947-1.637-0.389-3.729,1.246-4.675c5.639-3.265,10.628-7.457,14.828-12.459c1.215-1.445,3.373-1.634,4.82-0.419
			c1.447,1.214,1.635,3.373,0.419,4.819c-4.712,5.612-10.311,10.316-16.638,13.98C93.388,116.262,92.799,116.41,92.219,116.41z
			 M6.995,85.454c-1.396,0-2.708-0.86-3.213-2.248C1.28,76.356,0.007,69.155,0,61.8c-0.001-1.888,1.528-3.422,3.417-3.423
			c0.003,0,0.004,0,0.004,0c1.889,0,3.42,1.529,3.421,3.417c0.007,6.553,1.141,12.968,3.367,19.066
			c0.647,1.774-0.267,3.738-2.042,4.387C7.781,85.387,7.385,85.454,6.995,85.454z M118.237,85.399c-0.389,0-0.785-0.066-1.172-0.208
			c-1.775-0.646-2.691-2.608-2.045-4.384c2.222-6.1,3.348-12.518,3.348-19.075v-0.128c0-1.891,1.531-3.422,3.42-3.422
			c1.891,0,3.422,1.531,3.422,3.422v0.128c0,7.358-1.265,14.563-3.76,21.416C120.944,84.536,119.634,85.399,118.237,85.399z
			 M6.952,44.97c-0.387,0-0.781-0.065-1.167-0.206c-1.774-0.645-2.692-2.607-2.05-4.383c2.493-6.871,6.147-13.208,10.863-18.833
			c1.213-1.447,3.372-1.638,4.819-0.424c1.448,1.213,1.637,3.372,0.425,4.819c-4.2,5.011-7.455,10.654-9.674,16.772
			C9.663,44.106,8.352,44.97,6.952,44.97z M118.194,44.794c-1.396,0-2.705-0.859-3.215-2.246
			c-2.235-6.107-5.506-11.739-9.719-16.736c-1.221-1.445-1.035-3.603,0.409-4.821c1.445-1.217,3.603-1.035,4.82,0.41
			c4.729,5.61,8.403,11.934,10.916,18.794c0.649,1.774-0.261,3.739-2.036,4.389C118.981,44.726,118.585,44.794,118.194,44.794z
			 M32.943,13.932c-1.179,0-2.327-0.611-2.962-1.705c-0.949-1.634-0.393-3.728,1.242-4.677c6.34-3.681,13.212-6.192,20.419-7.466
			c1.86-0.328,3.638,0.914,3.965,2.774c0.329,1.861-0.913,3.635-2.773,3.963c-6.417,1.134-12.531,3.37-18.177,6.646
			C34.116,13.782,33.526,13.932,32.943,13.932z M92.11,13.839c-0.58,0-1.166-0.148-1.705-0.458
			c-5.654-3.261-11.779-5.477-18.201-6.59c-1.862-0.322-3.108-2.093-2.787-3.956c0.324-1.862,2.092-3.106,3.957-2.786
			c7.215,1.251,14.096,3.742,20.448,7.404c1.637,0.943,2.198,3.035,1.255,4.672C94.445,13.225,93.292,13.839,92.11,13.839z"/>
	</g>
	<text transform="matrix(1 0 0 1 52.6592 86.6187)" fill="#95C11F" font-family="'Dosis-Bold'" font-size="67">1</text>
</g>
</svg>
