<?xml version="1.0" encoding="utf-8"?>
<!-- Generator: Adobe Illustrator 15.1.0, SVG Export Plug-In . SVG Version: 6.00 Build 0)  -->
<!DOCTYPE svg PUBLIC "-//W3C//DTD SVG 1.1//EN" "http://www.w3.org/Graphics/SVG/1.1/DTD/svg11.dtd">
<svg version="1.1" id="Ebene_1" xmlns="http://www.w3.org/2000/svg" xmlns:xlink="http://www.w3.org/1999/xlink" x="0px" y="0px"
	 width="125.595px" height="124.337px" viewBox="0 0 125.595 124.337" enable-background="new 0 0 125.595 124.337"
	 xml:space="preserve">
<g>
	<g>
		<path fill="#95C11F" d="M62.722,124.664c-3.639,0-7.285-0.314-10.836-0.934c-1.861-0.327-3.106-2.098-2.783-3.96
			c0.326-1.861,2.098-3.105,3.959-2.781c6.348,1.109,13.025,1.104,19.371-0.01c1.856-0.321,3.633,0.918,3.961,2.779
			c0.326,1.861-0.918,3.634-2.779,3.961C70.045,124.345,66.38,124.664,62.722,124.664z M33.153,116.764
			c-0.58,0-1.169-0.148-1.706-0.459c-6.334-3.659-11.938-8.358-16.655-13.967c-1.218-1.446-1.03-3.604,0.415-4.82
			c1.445-1.216,3.604-1.031,4.82,0.416c4.207,4.999,9.199,9.187,14.842,12.448c1.635,0.944,2.195,3.036,1.251,4.673
			C35.484,116.151,34.336,116.764,33.153,116.764z M92.334,116.737c-1.181,0-2.331-0.611-2.964-1.707
			c-0.947-1.637-0.389-3.729,1.246-4.675c5.639-3.265,10.628-7.457,14.828-12.459c1.215-1.445,3.373-1.634,4.82-0.419
			c1.447,1.214,1.635,3.373,0.419,4.819c-4.712,5.612-10.311,10.316-16.638,13.98C93.503,116.589,92.915,116.737,92.334,116.737z
			 M7.111,85.781c-1.396,0-2.708-0.86-3.213-2.248c-2.502-6.85-3.775-14.051-3.782-21.406c-0.001-1.888,1.528-3.422,3.417-3.423
			c0.003,0,0.004,0,0.005,0c1.888,0,3.419,1.529,3.42,3.417c0.007,6.553,1.141,12.968,3.367,19.066
			c0.647,1.774-0.267,3.738-2.042,4.387C7.897,85.714,7.5,85.781,7.111,85.781z M118.353,85.726c-0.389,0-0.785-0.066-1.172-0.208
			c-1.775-0.646-2.691-2.608-2.045-4.384c2.222-6.1,3.348-12.518,3.348-19.075v-0.128c0-1.891,1.531-3.422,3.42-3.422
			c1.891,0,3.422,1.531,3.422,3.422v0.128c0,7.358-1.265,14.563-3.76,21.416C121.06,84.863,119.75,85.726,118.353,85.726z
			 M7.068,45.297c-0.387,0-0.781-0.065-1.167-0.206c-1.774-0.645-2.692-2.607-2.05-4.383C6.344,33.837,9.999,27.5,14.714,21.875
			c1.213-1.447,3.372-1.638,4.819-0.424c1.448,1.213,1.637,3.372,0.425,4.819c-4.2,5.011-7.455,10.654-9.674,16.772
			C9.779,44.433,8.467,45.297,7.068,45.297z M118.31,45.121c-1.396,0-2.705-0.859-3.215-2.246
			c-2.235-6.107-5.506-11.739-9.719-16.736c-1.221-1.445-1.035-3.603,0.409-4.821c1.445-1.217,3.603-1.035,4.82,0.41
			c4.729,5.61,8.403,11.934,10.916,18.794c0.649,1.774-0.261,3.739-2.036,4.389C119.097,45.053,118.701,45.121,118.31,45.121z
			 M33.059,14.259c-1.179,0-2.327-0.611-2.962-1.705c-0.949-1.634-0.393-3.728,1.242-4.677c6.34-3.681,13.212-6.192,20.419-7.466
			c1.86-0.328,3.638,0.914,3.965,2.774c0.329,1.861-0.913,3.635-2.773,3.963c-6.417,1.134-12.531,3.37-18.177,6.646
			C34.232,14.109,33.642,14.259,33.059,14.259z M92.226,14.167c-0.58,0-1.166-0.148-1.705-0.458
			c-5.654-3.261-11.779-5.477-18.201-6.59c-1.862-0.322-3.108-2.093-2.787-3.956c0.324-1.862,2.092-3.106,3.957-2.786
			c7.215,1.251,14.096,3.742,20.448,7.404c1.637,0.943,2.198,3.035,1.255,4.672C94.561,13.552,93.408,14.167,92.226,14.167z"/>
	</g>
	<text transform="matrix(1 0 0 1 45.313 85.4189)" fill="#95C11F" font-family="'Dosis-Bold'" font-size="67">3</text>
</g>
</svg>
