<?xml version="1.0" encoding="utf-8"?>
<!-- Generator: Adobe Illustrator 15.1.0, SVG Export Plug-In . SVG Version: 6.00 Build 0)  -->
<!DOCTYPE svg PUBLIC "-//W3C//DTD SVG 1.1//EN" "http://www.w3.org/Graphics/SVG/1.1/DTD/svg11.dtd">
<svg version="1.1" id="Ebene_1" xmlns="http://www.w3.org/2000/svg" xmlns:xlink="http://www.w3.org/1999/xlink" x="0px" y="0px"
	 width="125.595px" height="124.337px" viewBox="0 0 125.595 124.337" enable-background="new 0 0 125.595 124.337"
	 xml:space="preserve">
<g>
	<g>
		<path fill="#95C11F" d="M62.45,123.996c-3.641,0-7.285-0.314-10.838-0.934c-1.859-0.328-3.105-2.098-2.781-3.961
			c0.326-1.86,2.096-3.105,3.959-2.78c6.348,1.109,13.025,1.104,19.371-0.01c1.855-0.321,3.633,0.918,3.959,2.778
			c0.326,1.861-0.916,3.635-2.777,3.961C69.772,123.676,66.108,123.996,62.45,123.996z M32.88,116.095
			c-0.58,0-1.168-0.148-1.707-0.459c-6.332-3.659-11.936-8.358-16.654-13.967c-1.217-1.447-1.031-3.605,0.416-4.82
			c1.445-1.217,3.604-1.031,4.82,0.415c4.205,4.999,9.199,9.187,14.842,12.448c1.633,0.944,2.193,3.036,1.25,4.674
			C35.212,115.482,34.063,116.095,32.88,116.095z M92.062,116.068c-1.182,0-2.33-0.611-2.965-1.707
			c-0.945-1.637-0.387-3.729,1.246-4.675c5.641-3.265,10.629-7.456,14.83-12.459c1.213-1.444,3.371-1.634,4.818-0.419
			c1.447,1.213,1.637,3.373,0.42,4.818c-4.711,5.613-10.311,10.316-16.639,13.98C93.231,115.92,92.642,116.068,92.062,116.068z
			 M6.839,85.113c-1.398,0-2.709-0.861-3.215-2.248c-2.502-6.851-3.773-14.052-3.781-21.406c0-1.889,1.529-3.422,3.418-3.424h0.004
			c1.887,0,3.42,1.529,3.42,3.418c0.008,6.553,1.141,12.968,3.367,19.065c0.646,1.774-0.266,3.738-2.041,4.387
			C7.624,85.044,7.228,85.113,6.839,85.113z M118.079,85.057c-0.387,0-0.783-0.065-1.172-0.208
			c-1.773-0.646-2.689-2.607-2.043-4.384c2.221-6.101,3.348-12.518,3.348-19.075v-0.129c0-1.891,1.531-3.422,3.42-3.422
			c1.891,0,3.422,1.531,3.422,3.422v0.129c0,7.357-1.266,14.562-3.76,21.416C120.788,84.195,119.478,85.057,118.079,85.057z
			 M6.796,44.628c-0.389,0-0.781-0.066-1.168-0.207c-1.775-0.645-2.691-2.606-2.049-4.383c2.492-6.87,6.146-13.207,10.863-18.833
			c1.213-1.447,3.371-1.638,4.818-0.425s1.637,3.373,0.424,4.82c-4.199,5.01-7.455,10.654-9.672,16.771
			C9.507,43.764,8.194,44.628,6.796,44.628z M118.036,44.453c-1.395,0-2.703-0.859-3.213-2.246
			c-2.236-6.107-5.508-11.738-9.721-16.736c-1.219-1.445-1.035-3.604,0.41-4.82c1.445-1.218,3.602-1.035,4.82,0.41
			c4.73,5.609,8.404,11.934,10.916,18.793c0.65,1.775-0.262,3.74-2.035,4.389C118.825,44.384,118.427,44.453,118.036,44.453z
			 M32.786,13.589c-1.178,0-2.326-0.611-2.961-1.705c-0.949-1.634-0.395-3.727,1.24-4.676c6.342-3.682,13.213-6.193,20.42-7.467
			c1.859-0.328,3.639,0.914,3.965,2.774c0.33,1.86-0.912,3.636-2.773,3.964c-6.416,1.133-12.531,3.369-18.176,6.646
			C33.96,13.44,33.368,13.589,32.786,13.589z M91.952,13.498c-0.58,0-1.166-0.148-1.705-0.457C84.593,9.779,78.47,7.563,72.048,6.45
			c-1.863-0.322-3.109-2.093-2.787-3.956c0.322-1.861,2.092-3.105,3.955-2.785c7.217,1.251,14.096,3.742,20.449,7.404
			c1.637,0.942,2.199,3.035,1.256,4.672C94.288,12.882,93.136,13.498,91.952,13.498z"/>
	</g>
	<text transform="matrix(1 0 0 1 43.5938 85.7305)" fill="#95C11F" font-family="'Dosis-Bold'" font-size="67">6</text>
</g>
</svg>
